<svg xmlns="http://www.w3.org/2000/svg" width="39.3" height="29.428" viewBox="0 0 39.3 29.428">
    <g>
        <g>
            <path fill="#e30d40" d="M14.9 21.9a1.682 1.682 0 0 1 2.35.35 1.446 1.446 0 0 1-.05 2.25q-4.9 4.8-5.6 8.8-.3 1.7 1 1.7a5.063 5.063 0 0 1 4.05 2 7.748 7.748 0 0 1 1.65 5.1 8.027 8.027 0 0 1-2.05 5.7A6.975 6.975 0 0 1 10.9 50a7.237 7.237 0 0 1-5.55-2.45A9.305 9.305 0 0 1 3.1 41q0-11.3 11.8-19.1zm21.1 0a1.682 1.682 0 0 1 2.35.35 1.446 1.446 0 0 1-.05 2.25q-4.9 4.8-5.6 8.8-.3 1.7 1 1.7a5.063 5.063 0 0 1 4.05 2 7.748 7.748 0 0 1 1.65 5.1 8.027 8.027 0 0 1-2.05 5.7A6.975 6.975 0 0 1 32 50a7.237 7.237 0 0 1-5.55-2.45A9.305 9.305 0 0 1 24.2 41q0-11.3 11.8-19.1z" transform="translate(-716.7 -2294.893) translate(562.6 515.893) translate(154 1757.428)"/>
        </g>
        <g>
            <path fill="#074d89" d="M14.9 21.9a1.682 1.682 0 0 1 2.35.35 1.446 1.446 0 0 1-.05 2.25q-4.9 4.8-5.6 8.8-.3 1.7 1 1.7a5.063 5.063 0 0 1 4.05 2 7.748 7.748 0 0 1 1.65 5.1 8.027 8.027 0 0 1-2.05 5.7A6.975 6.975 0 0 1 10.9 50a7.237 7.237 0 0 1-5.55-2.45A9.305 9.305 0 0 1 3.1 41q0-11.3 11.8-19.1zm21.1 0a1.682 1.682 0 0 1 2.35.35 1.446 1.446 0 0 1-.05 2.25q-4.9 4.8-5.6 8.8-.3 1.7 1 1.7a5.063 5.063 0 0 1 4.05 2 7.748 7.748 0 0 1 1.65 5.1 8.027 8.027 0 0 1-2.05 5.7A6.975 6.975 0 0 1 32 50a7.237 7.237 0 0 1-5.55-2.45A9.305 9.305 0 0 1 24.2 41q0-11.3 11.8-19.1z" transform="translate(-716.7 -2294.893) translate(559.6 516.893) translate(154 1757.428)"/>
        </g>
    </g>
</svg>
