<svg width="444" height="441" viewBox="0 0 444 441" fill="none" xmlns="http://www.w3.org/2000/svg">
<g opacity="0.3">
<path d="M337.028 438.555C337.718 439.247 338.408 439.94 339.788 440.633C339.098 439.247 338.408 438.555 337.718 437.169C330.816 428.162 209.342 170.434 443.317 139.257C375.678 124.707 317.702 165.584 283.883 139.949C274.911 133.021 252.824 106.001 281.812 0C261.797 20.0918 128.59 214.774 337.028 438.555Z" fill="url(#paint0_linear_1004_17205)"/>
<path d="M354.283 92.1441C354.283 109.465 340.479 123.321 323.224 123.321C305.969 123.321 292.166 109.465 292.166 92.1441C292.166 74.8237 305.969 60.9673 323.224 60.9673C340.479 60.9673 354.283 74.8237 354.283 92.1441Z" fill="#CADBE7"/>
</g>
<g opacity="0.3">
<path d="M93.8857 438.389C93.2761 439.001 92.6664 439.613 91.4471 440.225C92.0568 439.001 92.6664 438.389 93.276 437.165C99.3725 429.21 206.67 201.557 -1.97641e-05 174.018C59.7454 161.167 110.956 197.273 140.829 174.63C148.754 168.51 168.263 144.644 142.657 51.0122C160.337 68.7593 277.999 240.723 93.8857 438.389Z" fill="url(#paint1_linear_1004_17205)"/>
<path d="M78.6443 132.403C78.6443 147.702 90.8372 159.941 106.078 159.941C121.32 159.941 133.513 147.702 133.513 132.403C133.513 117.104 121.32 104.864 106.078 104.864C90.8372 104.864 78.6443 117.104 78.6443 132.403Z" fill="#BAD37E"/>
</g>
<defs>
<linearGradient id="paint0_linear_1004_17205" x1="332.4" y1="0" x2="328.991" y2="370.201" gradientUnits="userSpaceOnUse">
<stop offset="0.411505" stop-color="#CADBE7"/>
<stop offset="1" stop-color="#CADBE7" stop-opacity="0"/>
</linearGradient>
<linearGradient id="paint1_linear_1004_17205" x1="102.337" y1="160.031" x2="102.337" y2="350.283" gradientUnits="userSpaceOnUse">
<stop stop-color="#BAD37E"/>
<stop offset="1" stop-color="#BAD37E" stop-opacity="0"/>
</linearGradient>
</defs>
</svg>
