<svg width="350" height="311" viewBox="0 0 350 311" fill="none" xmlns="http://www.w3.org/2000/svg">
<rect width="350" height="311" fill="url(#paint0_linear_1004_20511)"/>
<mask id="mask0_1004_20511" style="mask-type:alpha" maskUnits="userSpaceOnUse" x="0" y="2" width="350" height="309">
<rect y="2" width="350" height="309" fill="#C4C4C4"/>
</mask>
<g mask="url(#mask0_1004_20511)">
<path fill-rule="evenodd" clip-rule="evenodd" d="M310.145 451.379C308.753 450.692 308.057 450.004 307.361 449.316C97.1261 227.188 231.481 33.9434 251.67 14C222.432 119.219 244.708 146.039 253.758 152.916C271.471 166.129 295.753 161.54 324.558 156.097C351.226 151.058 381.77 145.286 414.567 152.228C178.575 183.175 301.096 439.001 308.057 447.941C308.405 448.628 308.753 449.144 309.101 449.66C309.449 450.176 309.797 450.692 310.145 451.379ZM293.44 136.412C310.843 136.412 324.766 122.657 324.766 105.465C324.766 88.2723 310.843 74.5182 293.44 74.5182C276.036 74.5182 262.114 88.2723 262.114 105.465C262.114 122.657 276.036 136.412 293.44 136.412Z" fill="#03304B" fill-opacity="0.1"/>
<path fill-rule="evenodd" clip-rule="evenodd" d="M34.7625 431.704C36.0921 431.047 36.7569 430.39 37.4218 429.734C238.199 217.598 109.888 33.0463 90.6078 14C118.53 114.485 97.2561 140.099 88.6133 146.667C71.6975 159.285 48.5074 154.903 20.998 149.705C-4.47005 144.892 -33.6402 139.38 -64.9614 146.01C160.415 175.565 43.4052 419.882 36.7569 428.42C36.4245 429.077 36.0921 429.569 35.7597 430.062C35.4273 430.555 35.0949 431.047 34.7625 431.704ZM50.7158 130.905C34.0951 130.905 20.7986 117.77 20.7986 101.351C20.7986 84.9315 34.0951 71.7962 50.7158 71.7962C67.3364 71.7962 80.6329 84.9315 80.6329 101.351C80.6329 117.77 67.3364 130.905 50.7158 130.905Z" fill="#03304B" fill-opacity="0.1"/>
</g>
<path d="M141.613 138.841C141.613 126.997 150.666 118.322 162.886 118.322C169.072 118.322 174.503 120.434 178.124 124.583L174.428 128.204C171.335 124.961 167.563 123.452 163.112 123.452C154.06 123.452 147.346 130.015 147.346 138.841C147.346 147.742 154.06 154.23 163.112 154.23C167.563 154.23 171.335 152.645 174.428 149.402L178.124 153.023C174.428 157.172 169.072 159.359 162.811 159.359C150.666 159.359 141.613 150.684 141.613 138.841Z" fill="white"/>
<path d="M184.234 138.841C184.234 127.073 193.287 118.322 205.583 118.322C217.803 118.322 226.855 127.073 226.855 138.841C226.855 150.609 217.803 159.359 205.583 159.359C193.287 159.359 184.234 150.609 184.234 138.841ZM221.122 138.841C221.122 129.939 214.484 123.452 205.583 123.452C196.606 123.452 189.967 130.015 189.967 138.841C189.967 147.742 196.606 154.23 205.583 154.23C214.484 154.305 221.122 147.742 221.122 138.841Z" fill="white"/>
<path d="M270.005 132.805C270.005 141.556 263.669 146.761 253.259 146.761H243.377V158.906H237.644V118.774H253.259C263.744 118.774 270.005 124.055 270.005 132.805ZM264.272 132.805C264.272 127.072 260.425 123.829 253.108 123.829H243.377V141.858H253.108C260.501 141.782 264.272 138.539 264.272 132.805Z" fill="white"/>
<path d="M309.608 153.927V158.906H280.49V118.774H308.779V123.753H286.223V136.049H306.365V140.952H286.223V153.927H309.608Z" fill="white"/>
<path d="M75.9803 192.174V169.015H52.8216C51.3883 169.015 50.2568 167.884 50.2568 166.375V157.851C48.1446 161.321 46.2587 165.62 45.8815 169.392C45.5043 173.315 46.6359 176.709 50.7848 178.218C54.7829 179.651 59.4599 178.973 63.2317 180.858C66.4 182.443 68.3613 185.234 68.4367 188.025C68.8139 195.946 79.2994 199.491 88.4271 194.814H78.6205C77.1872 194.814 75.9803 193.607 75.9803 192.174Z" fill="white"/>
<path d="M57.1225 183.423C54.256 184.48 52.7473 187.723 53.8034 190.59C54.8594 193.456 58.1032 194.965 60.9697 193.909C63.8363 192.853 65.345 189.609 64.2889 186.743C63.2328 183.876 59.9891 182.367 57.1225 183.423Z" fill="white"/>
<path d="M52.824 144.951H76.0582C76.2091 134.918 76.3599 121.264 76.1336 121.641C76.3599 120.434 77.416 119.529 78.623 119.529H82.2439C80.358 117.417 77.8686 115.456 75.3793 114.551C73.1162 113.721 70.8531 113.721 69.1181 115.305C65.1955 118.926 72.4373 127.45 68.8164 134.239C61.3483 148.195 46.4875 139.671 40 131.599C40.6035 141.104 44.5261 147.818 50.1838 152.042V147.516C50.1838 146.083 51.3908 144.951 52.824 144.951Z" fill="white"/>
<path d="M100.046 122.17V127.526V136.578V144.951H122.827C124.261 144.951 125.392 146.083 125.392 147.592V157.776C125.996 156.493 126.373 155.362 126.524 154.758C127.353 151.439 128.787 144.725 126.071 142.764C120.866 138.992 112.644 141.406 109.852 135.597C107.665 131.071 110.38 123.377 105.93 119.53C101.705 115.833 94.3882 116.512 89.334 119.605H97.4056C98.8389 119.605 100.046 120.737 100.046 122.17Z" fill="white"/>
<path d="M118.679 136.352C121.923 136.201 124.412 133.41 124.261 130.091C124.11 126.847 121.319 124.358 118 124.508C114.756 124.659 112.267 127.45 112.418 130.77C112.644 134.013 115.435 136.503 118.679 136.352Z" fill="white"/>
<path d="M133.616 174.823C132.635 172.938 129.316 167.355 125.394 163.885V166.375C125.394 167.808 124.262 169.015 122.829 169.015H100.047V191.117C99.821 190.891 99.5947 190.891 99.4438 190.967C99.6701 191.117 99.821 191.193 100.047 191.344V192.174C100.047 193.607 98.8403 194.738 97.407 194.738H84.2812C84.8093 195.342 85.3373 195.87 85.7145 196.247C90.9196 201.226 98.5386 198.812 102.989 194.135C107.515 189.307 107.138 181.16 113.248 177.615C117.247 175.351 123.809 174.144 128.034 176.709C130.146 177.992 134.446 180.406 135.351 187.421C136.181 182.895 135.728 178.972 133.616 174.823Z" fill="white"/>
<path d="M118.905 180.632C115.888 179.727 112.719 181.386 111.814 184.328C110.834 187.346 112.493 190.514 115.511 191.419C118.453 192.324 121.621 190.665 122.602 187.723C123.507 184.705 121.847 181.537 118.905 180.632Z" fill="white"/>
<path d="M59.8405 138.011C62.9334 137.559 65.121 134.692 64.6684 131.599C64.2158 128.506 61.3492 126.319 58.2564 126.771C55.1635 127.224 52.9759 130.09 53.4285 133.183C53.8811 136.352 56.7476 138.464 59.8405 138.011Z" fill="white"/>
<path d="M92.202 185.46C92.2774 185.535 92.3528 185.611 92.5037 185.686C92.4283 185.535 92.3528 185.46 92.2774 185.309C91.523 184.328 78.2464 156.266 103.819 152.872C96.4263 151.287 90.0898 155.738 86.3934 152.947C85.4128 152.193 82.9988 149.251 86.1671 137.709C83.9795 139.897 69.4204 161.094 92.202 185.46Z" fill="white"/>
<path d="M94.087 147.742C94.087 149.628 92.5783 151.137 90.6924 151.137C88.8066 151.137 87.2979 149.628 87.2979 147.742C87.2979 145.856 88.8066 144.348 90.6924 144.348C92.5783 144.348 94.087 145.856 94.087 147.742Z" fill="white"/>
<path d="M173.374 167.657L172.77 168.411C172.091 167.732 171.186 167.355 170.281 167.355C168.395 167.355 166.811 168.864 166.811 170.674C166.811 172.485 168.319 173.993 170.281 173.993C171.186 173.993 172.091 173.616 172.77 173.013L173.374 173.692C172.544 174.446 171.412 174.974 170.205 174.974C167.791 174.974 165.83 173.088 165.83 170.674C165.83 168.336 167.791 166.45 170.205 166.45C171.412 166.45 172.544 166.902 173.374 167.657Z" fill="white"/>
<path d="M180.993 171.73C180.993 173.616 179.635 174.974 177.75 174.974C175.864 174.974 174.506 173.692 174.506 171.73C174.506 169.844 175.864 168.562 177.75 168.562C179.635 168.562 180.993 169.844 180.993 171.73ZM175.487 171.73C175.487 173.164 176.467 174.069 177.75 174.069C179.032 174.069 180.013 173.088 180.013 171.73C180.013 170.372 179.032 169.392 177.75 169.392C176.467 169.392 175.487 170.372 175.487 171.73Z" fill="white"/>
<path d="M187.029 173.918C186.501 174.597 185.747 174.974 184.691 174.974C183.408 174.974 182.503 174.144 182.503 173.013C182.503 171.881 183.408 171.202 184.917 171.202H187.029V170.825C187.029 169.92 186.426 169.316 185.294 169.316C184.615 169.316 183.936 169.618 183.257 170.071L182.88 169.392C183.71 168.864 184.389 168.562 185.445 168.562C187.029 168.562 187.859 169.392 187.859 170.75V174.974H186.954V173.918H187.029ZM186.954 172.711V171.957H184.992C183.936 171.957 183.408 172.258 183.408 173.013C183.408 173.767 184.012 174.144 184.841 174.144C185.898 174.144 186.727 173.616 186.954 172.711Z" fill="white"/>
<path d="M190.498 174.899V165.922H191.403V174.899H190.498Z" fill="white"/>
<path d="M195.325 166.752C195.325 167.129 195.023 167.431 194.722 167.431C194.42 167.431 194.118 167.129 194.118 166.752C194.118 166.374 194.42 166.073 194.722 166.073C195.023 166.073 195.325 166.374 195.325 166.752ZM194.194 174.899V168.562H195.099V174.899H194.194Z" fill="white"/>
<path d="M201.135 174.446C200.682 174.748 200.229 174.899 199.701 174.899C198.796 174.899 198.117 174.37 198.117 173.088V169.467H197.212V168.713H198.117V167.053H199.022V168.713H201.059V169.467H199.022V172.937C199.022 173.692 199.324 173.993 199.852 173.993C200.154 173.993 200.531 173.918 200.833 173.692L201.135 174.446Z" fill="white"/>
<path d="M204.076 166.752C204.076 167.129 203.774 167.431 203.473 167.431C203.171 167.431 202.869 167.129 202.869 166.752C202.869 166.374 203.171 166.073 203.473 166.073C203.774 166.073 204.076 166.374 204.076 166.752ZM203.02 174.899V168.562H203.925V174.899H203.02Z" fill="white"/>
<path d="M212.45 171.73C212.45 173.616 211.093 174.974 209.207 174.974C207.321 174.974 205.963 173.616 205.963 171.73C205.963 169.844 207.321 168.562 209.207 168.562C211.093 168.562 212.45 169.844 212.45 171.73ZM206.944 171.73C206.944 173.164 207.924 174.069 209.207 174.069C210.489 174.069 211.47 173.088 211.47 171.73C211.47 170.372 210.489 169.392 209.207 169.392C207.924 169.392 206.944 170.372 206.944 171.73Z" fill="white"/>
<path d="M220.371 170.976V174.899H219.466V171.202C219.466 170.071 218.787 169.392 217.655 169.392C216.373 169.392 215.618 170.222 215.543 171.429V174.823H214.638V168.487H215.543V169.92C215.996 168.939 216.825 168.487 218.032 168.487C219.466 168.487 220.371 169.467 220.371 170.976Z" fill="white"/>
<path d="M232.364 171.73C232.364 173.616 231.007 174.974 229.121 174.974C227.235 174.974 225.877 173.692 225.877 171.73C225.877 169.844 227.235 168.562 229.121 168.562C231.007 168.562 232.364 169.844 232.364 171.73ZM226.858 171.73C226.858 173.164 227.838 174.069 229.121 174.069C230.403 174.069 231.384 173.088 231.384 171.73C231.384 170.372 230.403 169.392 229.121 169.392C227.838 169.392 226.858 170.372 226.858 171.73Z" fill="white"/>
<path d="M240.285 170.976V174.899H239.38V171.202C239.38 170.071 238.701 169.392 237.569 169.392C236.287 169.392 235.532 170.222 235.457 171.429V174.823H234.552V168.487H235.457V169.92C235.91 168.939 236.739 168.487 237.946 168.487C239.38 168.487 240.285 169.467 240.285 170.976Z" fill="white"/>
<path d="M249.867 166.45C251.979 166.45 253.186 167.506 253.186 169.316C253.186 171.202 251.979 172.258 249.867 172.258H247.679V174.898H246.698V166.45H249.867ZM247.603 171.278H249.791C251.3 171.278 252.205 170.599 252.205 169.316C252.205 168.034 251.3 167.355 249.791 167.355H247.603V171.278Z" fill="white"/>
<path d="M260.88 171.73C260.88 173.616 259.522 174.974 257.636 174.974C255.75 174.974 254.393 173.692 254.393 171.73C254.393 169.844 255.75 168.562 257.636 168.562C259.522 168.562 260.88 169.844 260.88 171.73ZM255.373 171.73C255.373 173.164 256.354 174.069 257.636 174.069C258.919 174.069 259.899 173.088 259.899 171.73C259.899 170.372 258.919 169.392 257.636 169.392C256.354 169.392 255.373 170.372 255.373 171.73Z" fill="white"/>
<path d="M266.611 169.09L266.234 169.845C265.706 169.543 265.103 169.317 264.499 169.317C263.82 169.317 263.217 169.543 263.217 170.146C263.217 171.58 266.762 170.825 266.762 173.088C266.762 174.371 265.631 174.899 264.424 174.899C263.518 174.899 262.613 174.597 262.01 173.994L262.387 173.315C262.915 173.843 263.745 174.144 264.499 174.144C265.254 174.144 265.857 173.843 265.857 173.239C265.857 171.731 262.312 172.485 262.312 170.222C262.312 169.015 263.368 168.487 264.499 168.487C265.404 168.487 266.083 168.713 266.611 169.09Z" fill="white"/>
<path d="M269.855 166.752C269.855 167.129 269.554 167.431 269.252 167.431C268.95 167.431 268.648 167.129 268.648 166.752C268.648 166.374 268.95 166.073 269.252 166.073C269.554 166.073 269.855 166.374 269.855 166.752ZM268.799 174.899V168.562H269.705V174.899H268.799Z" fill="white"/>
<path d="M275.739 174.446C275.286 174.748 274.834 174.899 274.306 174.899C273.401 174.899 272.722 174.37 272.722 173.088V169.467H271.816V168.713H272.722V167.053H273.627V168.713H275.664V169.467H273.627V172.937C273.627 173.692 273.929 173.993 274.457 173.993C274.758 173.993 275.136 173.918 275.437 173.692L275.739 174.446Z" fill="white"/>
<path d="M278.682 166.752C278.682 167.129 278.38 167.431 278.078 167.431C277.776 167.431 277.475 167.129 277.475 166.752C277.475 166.374 277.776 166.073 278.078 166.073C278.38 166.073 278.682 166.374 278.682 166.752ZM277.55 174.899V168.562H278.455V174.899H277.55Z" fill="white"/>
<path d="M282.679 174.899L280.189 168.562H281.17L283.207 173.918L285.244 168.562H286.224L283.735 174.899H282.679Z" fill="white"/>
<path d="M292.939 172.107H287.734C287.885 173.314 288.79 174.144 290.073 174.144C290.827 174.144 291.582 173.842 292.034 173.314L292.562 173.842C291.959 174.521 291.053 174.899 289.997 174.899C288.111 174.899 286.829 173.616 286.829 171.655C286.829 169.769 288.111 168.411 289.997 168.411C292.034 168.487 293.015 169.92 292.939 172.107ZM292.11 171.353C292.034 170.146 291.204 169.392 289.997 169.392C288.79 169.392 287.885 170.146 287.81 171.353H292.11Z" fill="white"/>
<path d="M155.647 190.74V186.667H150.442V190.74H148.782V181.009H150.442V185.234H155.647V181.009H157.306V190.74H155.647Z" fill="white"/>
<path d="M166.811 187.647H161.229C161.455 188.779 162.36 189.533 163.567 189.533C164.397 189.533 165.151 189.232 165.679 188.704L166.509 189.609C165.755 190.439 164.699 190.891 163.416 190.891C161.153 190.891 159.645 189.382 159.645 187.119C159.645 184.856 161.229 183.348 163.416 183.348C165.906 183.272 166.962 185.007 166.811 187.647ZM165.378 186.44C165.302 185.233 164.548 184.479 163.341 184.479C162.134 184.479 161.38 185.233 161.153 186.44H165.378Z" fill="white"/>
<path d="M173.374 189.835C172.846 190.514 172.016 190.815 170.884 190.815C169.3 190.815 168.244 189.835 168.244 188.477C168.244 187.119 169.3 186.289 171.035 186.214H173.298V185.987C173.298 185.082 172.695 184.479 171.563 184.479C170.884 184.479 170.13 184.705 169.376 185.233L168.697 184.102C169.753 183.498 170.507 183.196 171.865 183.196C173.751 183.196 174.882 184.177 174.882 185.837V190.74H173.298V189.835H173.374ZM173.374 188.1V187.421H171.337C170.281 187.421 169.828 187.722 169.828 188.401C169.828 189.08 170.356 189.533 171.262 189.533C172.393 189.533 173.298 188.929 173.374 188.1Z" fill="white"/>
<path d="M177.673 190.74V180.405H179.257V190.74H177.673Z" fill="white"/>
<path d="M186.424 190.288C185.821 190.665 185.217 190.816 184.614 190.816C183.482 190.816 182.501 190.137 182.501 188.628V184.781H181.445V183.574H182.501V181.537H184.086V183.574H186.273V184.781H184.086V188.326C184.086 189.081 184.387 189.307 184.915 189.307C185.217 189.307 185.594 189.232 186.047 189.005L186.424 190.288Z" fill="white"/>
<path d="M195.552 186.138V190.74H193.968V186.591C193.968 185.459 193.289 184.781 192.157 184.781C190.799 184.781 190.045 185.761 190.045 187.119V190.74H188.461V180.405H190.045V184.781C190.573 183.724 191.554 183.272 192.761 183.272C194.571 183.272 195.552 184.328 195.552 186.138Z" fill="white"/>
<path d="M204.077 182.443V185.083H208.829V186.592H204.077V189.307H209.583V190.816H202.417V181.009H209.357V182.518H204.077V182.443Z" fill="white"/>
<path d="M224.367 186.139V190.74H222.783V186.591C222.783 185.46 222.104 184.781 221.048 184.781C219.766 184.856 219.011 185.761 219.011 187.119V190.816H217.427V186.667C217.427 185.535 216.748 184.856 215.692 184.856C214.41 184.932 213.655 185.837 213.655 187.195V190.891H212.071V183.498H213.655V184.932C214.183 183.876 215.089 183.423 216.371 183.423C217.729 183.423 218.634 184.102 218.936 185.233C219.389 184.026 220.369 183.423 221.727 183.423C223.311 183.272 224.367 184.328 224.367 186.139Z" fill="white"/>
<path d="M234.777 187.043C234.777 189.231 233.42 190.815 231.232 190.815C230.025 190.815 229.12 190.362 228.592 189.457V193.455H227.083V183.347H228.667V184.629C229.195 183.8 230.1 183.271 231.232 183.271C233.344 183.271 234.777 184.78 234.777 187.043ZM233.193 187.043C233.193 185.685 232.288 184.629 230.93 184.629C229.572 184.629 228.667 185.61 228.667 187.043C228.667 188.477 229.572 189.457 230.93 189.457C232.288 189.457 233.193 188.401 233.193 187.043Z" fill="white"/>
<path d="M243.982 187.043C243.982 189.306 242.398 190.815 240.135 190.815C237.797 190.815 236.288 189.306 236.288 187.043C236.288 184.78 237.872 183.271 240.135 183.271C242.398 183.271 243.982 184.78 243.982 187.043ZM237.872 187.043C237.872 188.477 238.777 189.457 240.135 189.457C241.493 189.457 242.398 188.477 242.398 187.043C242.398 185.61 241.493 184.629 240.135 184.629C238.777 184.629 237.872 185.61 237.872 187.043Z" fill="white"/>
<path d="M252.881 190.74L250.996 185.233L249.11 190.74H247.45L244.734 183.347H246.394L248.355 189.156L250.241 183.347H251.901L253.787 189.156L255.673 183.347H257.332L254.616 190.74H252.881Z" fill="white"/>
<path d="M265.102 187.647H259.52C259.746 188.779 260.651 189.533 261.858 189.533C262.688 189.533 263.442 189.232 263.97 188.704L264.8 189.609C264.046 190.439 262.99 190.891 261.707 190.891C259.444 190.891 257.936 189.382 257.936 187.119C257.936 184.856 259.52 183.348 261.707 183.348C264.197 183.272 265.328 185.007 265.102 187.647ZM263.669 186.44C263.593 185.233 262.839 184.479 261.632 184.479C260.425 184.479 259.671 185.233 259.444 186.44H263.669Z" fill="white"/>
<path d="M268.876 184.78C269.404 183.8 270.234 183.271 271.441 183.271V184.78C269.932 184.705 269.027 185.61 268.876 186.817V190.664H267.292V183.271H268.876V184.78Z" fill="white"/>
<path d="M285.623 186.139V190.74H284.039V186.591C284.039 185.46 283.36 184.781 282.304 184.781C281.022 184.856 280.267 185.761 280.267 187.119V190.816H278.683V186.667C278.683 185.535 278.004 184.856 276.948 184.856C275.666 184.932 274.911 185.837 274.911 187.195V190.891H273.327V183.498H274.911V184.932C275.439 183.876 276.345 183.423 277.627 183.423C278.985 183.423 279.89 184.102 280.192 185.233C280.644 184.026 281.625 183.423 282.983 183.423C284.642 183.272 285.623 184.328 285.623 186.139Z" fill="white"/>
<path d="M294.826 187.647H289.243C289.47 188.779 290.375 189.533 291.582 189.533C292.412 189.533 293.166 189.232 293.694 188.704L294.524 189.609C293.769 190.439 292.713 190.891 291.431 190.891C289.168 190.891 287.659 189.382 287.659 187.119C287.659 184.856 289.243 183.348 291.431 183.348C293.996 183.272 295.052 185.007 294.826 187.647ZM293.392 186.44C293.317 185.233 292.563 184.479 291.356 184.479C290.149 184.479 289.394 185.233 289.168 186.44H293.392Z" fill="white"/>
<path d="M304.104 186.138V190.74H302.519V186.591C302.519 185.459 301.841 184.78 300.709 184.78C299.502 184.78 298.748 185.61 298.597 186.817V190.74H297.013V183.347H298.597V184.78C299.125 183.724 300.106 183.271 301.313 183.271C303.048 183.271 304.104 184.328 304.104 186.138Z" fill="white"/>
<path d="M310.892 190.288C310.288 190.665 309.685 190.816 309.081 190.816C307.95 190.816 306.969 190.137 306.969 188.628V184.781H305.913V183.574H306.969V181.537H308.553V183.574H310.741V184.781H308.553V188.326C308.553 189.081 308.855 189.307 309.383 189.307C309.685 189.307 310.062 189.232 310.515 189.005L310.892 190.288Z" fill="white"/>
<defs>
<linearGradient id="paint0_linear_1004_20511" x1="175" y1="0" x2="175" y2="381" gradientUnits="userSpaceOnUse">
<stop offset="0.0192926" stop-color="#046BAC"/>
<stop offset="1" stop-color="#BAD37E"/>
</linearGradient>
</defs>
</svg>
