<svg xmlns="http://www.w3.org/2000/svg" width="164" height="156.333" viewBox="0 0 164 156.333">
    <defs>
        <style>
            .cls-2{fill:#fff}
        </style>
    </defs>
    <g id="Icon_star" opacity="0.024" transform="translate(-165.911 -104.781)">
        <path id="Path_35" d="M291.012 204.818l37.794-36.841a3.658 3.658 0 0 0-2.027-6.239l-52.23-7.59-23.357-47.328c-.024-.048-.064-.084-.089-.131a3.674 3.674 0 0 0-.4-.583c-.05-.061-.095-.125-.149-.181a3.681 3.681 0 0 0-.666-.554c-.059-.038-.124-.065-.185-.1a3.578 3.578 0 0 0-.641-.285c-.083-.028-.164-.056-.25-.077a3.645 3.645 0 0 0-.866-.123H247.887a3.652 3.652 0 0 0-.888.125c-.078.021-.153.046-.23.071a3.678 3.678 0 0 0-.676.3c-.05.028-.1.051-.151.082a3.671 3.671 0 0 0-.688.572c-.041.044-.076.093-.115.139a3.625 3.625 0 0 0-.438.643c-.02.036-.051.064-.07.1l-23.358 47.329-52.231 7.59a3.657 3.657 0 0 0-2.026 6.239l37.793 36.841-5.609 32.689c-.009.043-.015.089-.023.132l-3.293 19.2a3.658 3.658 0 0 0 5.308 3.856l46.717-24.56 46.715 24.56a3.662 3.662 0 0 0 1.7.42.457.457 0 0 1 .049 0 3.658 3.658 0 0 0 3.456-4.857l-3.2-18.683c0-.011 0-.024-.006-.035zm-79.719-3.9l-5.769-5.623H290.3l-5.769 5.623a3.658 3.658 0 0 0-1.053 3.237l1.044 6.087H211.3l1.044-6.087a3.658 3.658 0 0 0-1.051-3.234zm86.51-12.939h-46.236v-16.091h62.747zm-46.236-63.869l8.416 17.054h-8.416zm43.844 40.463h-43.844v-16.094h12.026l5.247 10.632a3.661 3.661 0 0 0 2.754 2zm-71.182-3.461a3.661 3.661 0 0 0 2.754-2l17.269-34.992v63.863h-46.233l-20.589-20.07zm-18.364 80.833h15.272l-16.785 8.824zm40.346-13.182l-11.159 5.867h-27.933l2.929-17.069h75.728l2.928 17.069h-27.93l-11.158-5.867a3.663 3.663 0 0 0-3.406 0zm28.478 13.182h15.271l1.513 8.824z" class="cls-2" transform="translate(0)"/>
        <path id="Path_36" d="M241.032 190.129a4.54 4.54 0 1 0 6.337-6.337 4.54 4.54 0 1 0-6.337 6.337z" class="cls-2" transform="translate(-10.307 -10.854)"/>
        <path id="Path_37" d="M241.032 174.4a4.54 4.54 0 1 0 6.337-6.337 4.54 4.54 0 1 0-6.337 6.337z" class="cls-2" transform="translate(-10.307 -8.642)"/>
        <path id="Path_38" d="M219.335 190.129a4.54 4.54 0 1 0 6.337-6.337 4.54 4.54 0 1 0-6.337 6.337z" class="cls-2" transform="translate(-7.254 -10.854)"/>
        <path id="Path_39" d="M202.168 191.99a4.54 4.54 0 0 0 3.168-8.2 4.54 4.54 0 1 0-6.336 6.339 3.643 3.643 0 0 0 3.168 1.861z" class="cls-2" transform="translate(-4.393 -10.854)"/>
    </g>
</svg>
