<svg xmlns="http://www.w3.org/2000/svg" width="160.603" height="153.346" viewBox="0 0 160.603 153.346">
    <defs>
        <style>
            .cls-2{fill:#c4c4c4}
        </style>
    </defs>
    <g id="Group_3692" opacity="0.162" transform="translate(-161.428 -107.661) rotate(1)">
        <path id="Path_35" d="M286.434 201.157l36.411-35.492a3.524 3.524 0 0 0-1.953-6.01l-50.319-7.313-22.5-45.6c-.023-.046-.061-.081-.086-.127a3.54 3.54 0 0 0-.384-.561c-.048-.059-.091-.12-.143-.175a3.547 3.547 0 0 0-.642-.534c-.057-.036-.119-.063-.178-.1a3.445 3.445 0 0 0-.618-.275c-.08-.027-.158-.054-.241-.075a3.512 3.512 0 0 0-.834-.118h-.057a3.519 3.519 0 0 0-.855.121c-.075.02-.147.045-.222.069a3.543 3.543 0 0 0-.652.291c-.048.027-.1.049-.146.079a3.535 3.535 0 0 0-.663.551c-.04.042-.073.089-.111.134a3.49 3.49 0 0 0-.422.619c-.019.035-.049.061-.067.1l-22.5 45.6-50.319 7.313a3.523 3.523 0 0 0-1.952 6.01l36.41 35.492-5.4 31.491c-.009.041-.015.085-.022.128l-3.172 18.5a3.524 3.524 0 0 0 5.114 3.715l45.007-23.661 45.005 23.661a3.528 3.528 0 0 0 1.64.4.456.456 0 0 1 .047 0 3.524 3.524 0 0 0 3.33-4.679l-3.087-18c0-.011 0-.023-.006-.034zm-76.8-3.754l-5.558-5.418h81.672l-5.558 5.418a3.524 3.524 0 0 0-1.014 3.119l1.006 5.864h-70.541l1.006-5.864a3.524 3.524 0 0 0-1.015-3.122zm83.344-12.465h-44.546v-15.505h60.451zM248.432 123.4l8.108 16.43h-8.108zm42.24 38.983h-42.24V146.88h11.586l5.055 10.243a3.527 3.527 0 0 0 2.653 1.927zm-68.577-3.335a3.527 3.527 0 0 0 2.653-1.927l16.637-33.712v61.526h-44.54L177.009 165.6zM204.4 236.925h14.713l-16.171 8.5zm38.869-12.7l-10.751 5.652h-26.91l2.821-16.445h72.957l2.821 16.445H257.3l-10.75-5.652a3.529 3.529 0 0 0-3.279.001zm27.436 12.7h14.712l1.458 8.5z" class="cls-2" transform="translate(0 0)"/>
        <path id="Path_36" d="M240.964 189.829a4.374 4.374 0 1 0 6.1-6.1 4.374 4.374 0 1 0-6.1 6.1z" class="cls-2" transform="translate(-12.611 -13.28)"/>
        <path id="Path_37" d="M240.964 174.1a4.374 4.374 0 1 0 6.1-6.1 4.374 4.374 0 1 0-6.1 6.1z" class="cls-2" transform="translate(-12.611 -10.573)"/>
        <path id="Path_38" d="M219.267 189.829a4.374 4.374 0 1 0 6.1-6.1 4.374 4.374 0 1 0-6.1 6.1z" class="cls-2" transform="translate(-8.876 -13.28)"/>
        <path id="Path_39" d="M201.984 191.622a4.374 4.374 0 0 0 3.052-7.9 4.374 4.374 0 1 0-6.1 6.1 3.51 3.51 0 0 0 3.048 1.8z" class="cls-2" transform="translate(-5.375 -13.28)"/>
    </g>
</svg>
