<svg width="104" height="104" viewBox="0 0 104 104" fill="none" xmlns="http://www.w3.org/2000/svg">
<circle cx="52" cy="52" r="52" fill="white"/>
<path d="M50.8145 54.3161C50.5014 49.541 49.8673 44.9141 47.8947 42.1208C46.5953 40.2795 44.5679 38.204 42.3918 38.0324C44.0513 36.8386 45.1394 34.8568 45.1394 32.6175C45.1394 28.9659 42.2744 26.0088 38.7363 26.0088C35.1981 26.0088 32.3331 28.9659 32.3331 32.6175C32.3331 34.8802 33.4369 36.8698 35.112 38.0636C33.1551 38.3913 31.3155 40.2171 30.1101 41.8556C28.02 44.6722 27.3312 49.4005 27.0024 54.3083C26.8381 56.7504 28.7715 58.8259 31.2216 58.8259H46.5953C49.0454 58.8103 50.9789 56.7504 50.8145 54.3161Z" fill="white" stroke="#003555" stroke-width="2" stroke-miterlimit="10" stroke-linecap="round" stroke-linejoin="round"/>
<path d="M42.4075 38.0237C44.5758 38.2031 46.6032 40.2786 47.8947 42.1122C49.8673 44.9054 50.5092 49.5323 50.8145 54.3074C50.971 56.7418 49.0376 58.8094 46.5953 58.8094H31.2216C28.7715 58.8094 26.8381 56.734 27.0024 54.2918C27.3312 49.3841 28.0279 44.6558 30.1101 41.8391C31.3077 40.224 33.1159 38.4138 35.0415 38.0549" fill="#A1BF56"/>
<path d="M42.4075 38.0237C44.5758 38.2031 46.6032 40.2786 47.8947 42.1122C49.8673 44.9054 50.5092 49.5323 50.8145 54.3074C50.971 56.7418 49.0376 58.8094 46.5953 58.8094H31.2216C28.7715 58.8094 26.8381 56.734 27.0024 54.2918C27.3312 49.3841 28.0279 44.6558 30.1101 41.8391C31.3077 40.224 33.1159 38.4138 35.0415 38.0549" stroke="#003555" stroke-width="2" stroke-miterlimit="10" stroke-linecap="round" stroke-linejoin="round"/>
<path d="M38.7364 39.2174C42.2727 39.2174 45.1395 36.2585 45.1395 32.6087C45.1395 28.9588 42.2727 26 38.7364 26C35.2 26 32.3333 28.9588 32.3333 32.6087C32.3333 36.2585 35.2 39.2174 38.7364 39.2174Z" fill="white" stroke="#003555" stroke-width="2" stroke-miterlimit="10" stroke-linecap="round" stroke-linejoin="round"/>
<path d="M76.1531 54.3161C75.84 49.541 75.206 44.9141 73.2334 42.1208C71.934 40.2795 69.9066 38.204 67.7304 38.0324C69.3899 36.8386 70.478 34.8568 70.478 32.6175C70.478 28.9659 67.613 26.0088 64.0749 26.0088C60.5367 26.0088 57.6718 28.9659 57.6718 32.6175C57.6718 34.8802 58.7755 36.8698 60.4506 38.0636C58.4937 38.3913 56.6542 40.2171 55.4487 41.8556C53.3587 44.6722 52.6698 49.4005 52.3411 54.3083C52.1767 56.7504 54.1101 58.8259 56.5602 58.8259H71.934C74.3762 58.8103 76.3097 56.7504 76.1531 54.3161Z" fill="white" stroke="#003555" stroke-width="2" stroke-miterlimit="10" stroke-linecap="round" stroke-linejoin="round"/>
<path d="M67.7383 38.0237C69.9066 38.2031 71.934 40.2786 73.2255 42.1122C75.1981 44.9132 75.84 49.5323 76.1531 54.3152C76.3097 56.7496 74.3762 58.8172 71.934 58.8172H56.5602C54.1101 58.8172 52.1767 56.7418 52.3411 54.2996C52.6698 49.3919 53.3665 44.6636 55.4487 41.8469C56.6463 40.2318 58.4545 38.4216 60.3802 38.0627" fill="#A1BF56"/>
<path d="M67.7383 38.0237C69.9066 38.2031 71.934 40.2786 73.2255 42.1122C75.1981 44.9132 75.84 49.5323 76.1531 54.3152C76.3097 56.7496 74.3762 58.8172 71.934 58.8172H56.5602C54.1101 58.8172 52.1767 56.7418 52.3411 54.2996C52.6698 49.3919 53.3665 44.6636 55.4487 41.8469C56.6463 40.2318 58.4545 38.4216 60.3802 38.0627" stroke="#003555" stroke-width="2" stroke-miterlimit="10" stroke-linecap="round" stroke-linejoin="round"/>
<path d="M64.0669 39.2174C67.6033 39.2174 70.47 36.2585 70.47 32.6087C70.47 28.9588 67.6033 26 64.0669 26C60.5306 26 57.6638 28.9588 57.6638 32.6087C57.6638 36.2585 60.5306 39.2174 64.0669 39.2174Z" fill="white" stroke="#003555" stroke-width="2" stroke-miterlimit="10" stroke-linecap="round" stroke-linejoin="round"/>
<path d="M17.1785 72.4794C14.1727 72.4794 11.8087 69.9436 12.0122 66.9553C12.4193 60.9474 13.2647 55.158 15.8165 51.7093C17.4525 49.5012 20.02 46.9966 22.6893 47.0044C24.8811 47.0122 27.4877 47.02 30.5014 47.02C33.2959 47.02 35.926 49.6963 37.5855 52.0448C39.9965 55.4701 40.7793 61.1269 41.1628 66.9709C41.3585 69.9514 38.9945 72.4794 35.9965 72.4794H17.1785Z" fill="#046BAC" stroke="#003555" stroke-width="2" stroke-miterlimit="10" stroke-linecap="round" stroke-linejoin="round"/>
<path d="M26.3759 48.4946C30.7034 48.4946 34.2115 44.8755 34.2115 40.4112C34.2115 35.9469 30.7034 32.3279 26.3759 32.3279C22.0484 32.3279 18.5403 35.9469 18.5403 40.4112C18.5403 44.8755 22.0484 48.4946 26.3759 48.4946Z" fill="white" stroke="#003555" stroke-width="2" stroke-miterlimit="10" stroke-linecap="round" stroke-linejoin="round"/>
<path d="M67.1981 72.4794C64.1922 72.4794 61.8282 69.9436 62.0318 66.9553C62.4388 60.9474 63.2842 55.158 65.8361 51.7093C67.4721 49.5012 70.0396 46.9966 72.7088 47.0044C74.9006 47.0122 77.5072 47.02 80.5209 47.02C83.3154 47.02 85.9456 49.6963 87.6051 52.0448C90.016 55.4701 90.7988 61.1269 91.1824 66.9709C91.378 69.9514 89.0141 72.4794 86.016 72.4794H67.1981Z" fill="#046BAC" stroke="#003555" stroke-width="2" stroke-miterlimit="10" stroke-linecap="round" stroke-linejoin="round"/>
<path d="M76.3956 48.4946C80.7231 48.4946 84.2312 44.8755 84.2312 40.4112C84.2312 35.9469 80.7231 32.3279 76.3956 32.3279C72.0682 32.3279 68.5601 35.9469 68.5601 40.4112C68.5601 44.8755 72.0682 48.4946 76.3956 48.4946Z" fill="white" stroke="#003555" stroke-width="2" stroke-miterlimit="10" stroke-linecap="round" stroke-linejoin="round"/>
<path d="M41.6325 78.3154C38.5484 78.3154 36.1139 75.7094 36.3253 72.6352C36.7402 66.4635 37.609 60.518 40.2392 56.9679C41.9143 54.7052 44.5601 52.1226 47.2998 52.1304C49.5464 52.1382 52.2235 52.146 55.3233 52.146C58.1961 52.146 60.9045 54.8925 62.6031 57.3112C65.0845 60.8301 65.8908 66.6429 66.2821 72.6508C66.4778 75.7094 64.0512 78.3076 60.9749 78.3076L41.6325 78.3154Z" fill="white" stroke="#003555" stroke-width="2" stroke-miterlimit="10" stroke-linecap="round" stroke-linejoin="round"/>
<path d="M51.0885 53.6754C55.537 53.6754 59.1432 49.955 59.1432 45.3658C59.1432 40.7765 55.537 37.0562 51.0885 37.0562C46.6399 37.0562 43.0337 40.7765 43.0337 45.3658C43.0337 49.955 46.6399 53.6754 51.0885 53.6754Z" fill="white" stroke="#003555" stroke-width="2" stroke-miterlimit="10" stroke-linecap="round" stroke-linejoin="round"/>
<path d="M51.558 71.9019L46.7439 67.6652C44.6148 65.5429 44.2938 64.3101 44.6539 62.8667C44.9279 61.7743 45.6793 60.5181 47.4641 60.0266C48.9592 59.6131 50.5639 60.3777 51.6676 61.4622C51.6754 61.47 51.6832 61.4778 51.6911 61.4856C51.6989 61.4778 51.7067 61.47 51.7145 61.4622C52.8183 60.3777 54.4229 59.6053 55.9181 60.0266C57.7028 60.5259 58.4543 61.7743 58.7282 62.8667C59.0883 64.3101 58.8926 65.4181 56.5834 67.7198L51.8241 71.9019C51.7459 71.9721 51.6284 71.9721 51.558 71.9019Z" fill="#C59766" stroke="#003555" stroke-width="2" stroke-miterlimit="10" stroke-linecap="round" stroke-linejoin="round"/>
</svg>
