<svg width="104" height="104" viewBox="0 0 104 104" fill="none" xmlns="http://www.w3.org/2000/svg">
<circle cx="52" cy="52" r="52" fill="white"/>
<path d="M52.3053 51.6431L40.7923 41.5238C35.7003 36.4548 34.9328 33.5104 35.794 30.0627C36.4492 27.4537 38.2463 24.4533 42.5146 23.2793C46.0902 22.2916 49.9278 24.1179 52.5674 26.7083C52.5861 26.7269 52.6048 26.7455 52.6236 26.7642C52.6423 26.7455 52.661 26.7269 52.6797 26.7083C55.3193 24.1179 59.157 22.2729 62.7326 23.2793C67.0008 24.472 68.798 27.4537 69.4532 30.0627C70.3143 33.5104 69.8463 36.1566 64.3238 41.6542L52.9418 51.6431C52.7546 51.8108 52.4738 51.8108 52.3053 51.6431Z" fill="#BAD37E" stroke="#003555" stroke-width="2.5" stroke-miterlimit="10" stroke-linecap="round" stroke-linejoin="round"/>
<path d="M37.0623 81.2662C38.4912 81.351 39.6973 80.2172 39.705 78.7748C39.705 76.6382 39.7818 73.7997 40.1122 72.6658C40.3503 71.8405 40.527 71.3391 40.696 70.7529C41.1877 69.002 41.1185 67.6676 40.7268 65.9167C40.1736 63.4253 38.7831 61.5586 37.0469 59.7229C35.9561 58.5659 34.9958 58.0028 33.4747 55.6348C31.6463 52.804 31.0087 51.5699 30.325 50.2972C30.0254 49.7496 29.7718 49.3099 29.3877 48.9011C29.1957 48.6928 28.9806 48.5 28.7885 48.3997C28.2738 48.1375 27.7898 48.0295 27.3135 48.0835V48.0758L29.6028 35.4337V35.4491C29.841 33.7522 28.85 32.3638 27.5363 31.9704C26.2457 31.5924 24.617 32.302 24.087 34.0453C20.507 43.1161 20 56.8304 20 56.8304C20.0154 58.5042 20.507 60.1394 21.4289 61.5355C22.973 63.8649 25.9 67.3668 27.7668 69.9199C27.7898 69.9507 28.0126 75.3192 28.1355 78.4817C28.1893 79.7621 29.1957 80.7957 30.4709 80.8728L37.0623 81.2662Z" fill="white" stroke="#003555" stroke-width="2" stroke-miterlimit="10" stroke-linecap="round" stroke-linejoin="round"/>
<path d="M29.5493 35.6653L27.114 48.1146C27.9053 47.806 28.7427 48.3228 29.5647 49.0247C30.2714 45.0601 31.0166 40.7484 31.3239 38.4266C31.516 36.9843 30.6018 35.9584 29.5493 35.6653Z" fill="white" stroke="#003555" stroke-width="2" stroke-miterlimit="10" stroke-linecap="round" stroke-linejoin="round"/>
<path d="M40.1122 72.666C40.3503 71.8406 40.527 71.3393 40.696 70.7531C41.1877 69.0021 41.1185 67.6677 40.7268 65.9168C40.1736 63.4254 38.7831 61.5588 37.0469 59.723C35.9561 58.566 34.9958 58.0029 33.4747 55.635C31.6463 52.8042 31.0087 51.57 30.325 50.2973C30.0254 49.7497 29.7718 49.31 29.3877 48.9012C29.1957 48.693 28.9806 48.5001 28.7885 48.3999C27.8359 47.9139 26.9678 47.9216 26.0997 48.6235C25.3699 49.2175 24.9551 50.2896 25.1087 51.4389C25.1702 51.8631 25.3161 52.2719 25.5159 52.6499C25.5159 52.6499 29.6412 60.8569 31.8153 63.8728" fill="white"/>
<path d="M40.1122 72.666C40.3503 71.8406 40.527 71.3393 40.696 70.7531C41.1877 69.0021 41.1185 67.6677 40.7268 65.9168C40.1736 63.4254 38.7831 61.5588 37.0469 59.723C35.9561 58.566 34.9958 58.0029 33.4747 55.635C31.6463 52.8042 31.0087 51.57 30.325 50.2973C30.0254 49.7497 29.7718 49.31 29.3877 48.9012C29.1957 48.693 28.9806 48.5001 28.7885 48.3999C27.8359 47.9139 26.9678 47.9216 26.0997 48.6235C25.3699 49.2175 24.9551 50.2896 25.1087 51.4389C25.1702 51.8631 25.3161 52.2719 25.5159 52.6499C25.5159 52.6499 29.6412 60.8569 31.8153 63.8728" stroke="#003555" stroke-width="2" stroke-miterlimit="10" stroke-linecap="round" stroke-linejoin="round"/>
<path d="M73.5441 80.1326C74.6965 79.9706 75.5799 79.0296 75.6875 77.8649C75.941 74.9801 76.3866 69.9588 76.4096 69.9202C78.2764 67.3671 81.2033 63.8652 82.7475 61.5358C83.6693 60.1397 84.1687 58.5045 84.1764 56.8307C84.1764 56.8307 83.6693 43.1087 80.1048 34.0456C79.5747 32.3024 77.9461 31.585 76.6554 31.9707C75.3418 32.3564 74.3508 33.7525 74.5889 35.4494V35.434L76.8782 48.0761V48.0838C76.4019 48.0298 75.9103 48.1378 75.4032 48.4C75.2112 48.5003 74.9961 48.6854 74.804 48.9014C74.4199 49.3179 74.1664 49.7499 73.8668 50.2975C73.1754 51.5702 72.5454 52.8043 70.7171 55.6351C69.1883 57.9954 68.2357 58.5662 67.1448 59.7232C65.4086 61.559 64.0258 63.4179 63.465 65.917C63.0732 67.6756 63.0041 69.01 63.4957 70.7532C63.6571 71.3317 63.8338 71.8408 64.0796 72.6661C64.4023 73.7614 64.4791 76.4379 64.4868 78.5437C64.4944 80.0709 65.8388 81.2356 67.3446 81.0196L73.5441 80.1326Z" fill="white" stroke="#003555" stroke-width="2" stroke-miterlimit="10" stroke-linecap="round" stroke-linejoin="round"/>
<path d="M74.636 35.6653L77.0713 48.1146C76.28 47.806 75.4426 48.3228 74.6206 49.0247C73.9138 45.0601 73.1686 40.7484 72.8613 38.4266C72.6616 36.9843 73.5758 35.9584 74.636 35.6653Z" fill="white" stroke="#003555" stroke-width="2" stroke-miterlimit="10" stroke-linecap="round" stroke-linejoin="round"/>
<path d="M72.3698 63.8806C74.5439 60.8647 78.6693 52.6577 78.6693 52.6577C78.869 52.2798 79.0227 51.871 79.0765 51.4467C79.2301 50.2974 78.8153 49.2253 78.0854 48.6314C77.2173 47.9294 76.3493 47.9217 75.3967 48.4077C75.2046 48.5079 74.9895 48.6931 74.7974 48.909C74.4133 49.3256 74.1598 49.7575 73.8602 50.3052C73.1688 51.5778 72.5389 52.812 70.7105 55.6428C69.1817 58.003 68.2291 58.5738 67.1382 59.7308C65.402 61.5666 64.0192 63.4255 63.4584 65.9246C63.0666 67.6833 62.9975 69.0177 63.4892 70.7609C63.6505 71.3394 63.8272 71.8484 64.073 72.6738" fill="white"/>
<path d="M72.3698 63.8806C74.5439 60.8647 78.6693 52.6577 78.6693 52.6577C78.869 52.2798 79.0227 51.871 79.0765 51.4467C79.2301 50.2974 78.8153 49.2253 78.0854 48.6314C77.2173 47.9294 76.3493 47.9217 75.3967 48.4077C75.2046 48.5079 74.9895 48.6931 74.7974 48.909C74.4133 49.3256 74.1598 49.7575 73.8602 50.3052C73.1688 51.5778 72.5389 52.812 70.7105 55.6428C69.1817 58.003 68.2291 58.5738 67.1382 59.7308C65.402 61.5666 64.0192 63.4255 63.4584 65.9246C63.0666 67.6833 62.9975 69.0177 63.4892 70.7609C63.6505 71.3394 63.8272 71.8484 64.073 72.6738" stroke="#003555" stroke-width="2" stroke-miterlimit="10" stroke-linecap="round" stroke-linejoin="round"/>
</svg>
