<svg xmlns="http://www.w3.org/2000/svg" width="101" height="85.479" viewBox="0 0 101 85.479">
    <defs>
        <style>
            .cls-1{fill:#fff}
        </style>
    </defs>
    <g id="icon_3" transform="translate(0 -36.908)">
        <path id="Path_11334" d="M101 97.065V58.6a5.789 5.789 0 0 0-5.782-5.782h-.692v-4.627H54.705a5.75 5.75 0 0 0-3.418 1.122c-.061-.127-.124-.253-.192-.376a7.857 7.857 0 0 0-2.712-2.864A33.368 33.368 0 0 0 37.918 41.8v-4.9h-15.77v5.12a32.765 32.765 0 0 0-5.9 2.119l-9.773 4.63v4.049h-.693A5.789 5.789 0 0 0 0 58.6v58a5.789 5.789 0 0 0 5.782 5.782h89.436A5.789 5.789 0 0 0 101 116.6v-16.154h-3.154V116.6a2.631 2.631 0 0 1-2.628 2.628H5.782a2.631 2.631 0 0 1-2.628-2.628v-58a2.631 2.631 0 0 1 2.628-2.628h.693v59.688h88.063l-.012-59.688h.692a2.631 2.631 0 0 1 2.628 2.628v38.465zm-75.7-57h9.462v21.118l-4.731-1.262-4.731 1.262zM17.6 47a29.556 29.556 0 0 1 4.55-1.7v19.989l7.885-2.1 7.885 2.1V45.043a30.185 30.185 0 0 1 8.794 3.705 4.7 4.7 0 0 1 1.621 1.712 4.758 4.758 0 0 1 .59 2.293V62.3h3.154V53.962a2.631 2.631 0 0 1 2.628-2.616h36.664V54.4l.01 48.32H54.705a5.742 5.742 0 0 0-2.628.635v-37.69h-3.154v34.819c-.175-.13-.353-.256-.54-.373a33.889 33.889 0 0 0-32.133-1.926l-6.621 3.131v-50.55zm-7.971 65.506v-7.7l7.969-3.769a30.7 30.7 0 0 1 29 1.679h-21.3v3.154h23.54c.057.294.089 6.636.089 6.636H9.629zm42.448 0V108.5a2.631 2.631 0 0 1 2.628-2.628h36.677v6.636z" class="cls-1" transform="translate(0)"/>
        <path id="Path_11335" d="M90.171 349.881h3.154v3.154h-3.154z" class="cls-1" transform="translate(-71.211 -247.165)"/>
        <path id="Path_11336" d="M0 0h18.925v3.154H0z" class="cls-1" transform="translate(62.967 57.592) rotate(-0.458)"/>
        <path id="Path_11337" d="M0 0h26.775v3.154H0z" class="cls-1" transform="translate(58.342 67.262) rotate(-0.458)"/>
        <path id="Path_11338" d="M0 0h15.906v3.154H0z" class="cls-1" transform="translate(69.212 73.483) rotate(-0.458)"/>
        <path id="Path_11339" d="M0 0h7.785v3.154H0z" class="cls-1" transform="translate(58.341 73.575) rotate(-0.458)"/>
        <path id="Path_11340" d="M0 0h26.775v3.154H0z" class="cls-1" transform="translate(58.345 79.879) rotate(-0.458)"/>
        <path id="Path_11341" d="M0 0h26.775v3.154H0z" class="cls-1" transform="translate(58.345 85.979) rotate(-0.458)"/>
        <path id="Path_11342" d="M0 0h17.243v3.154H0z" class="cls-1" transform="translate(58.307 92.426) rotate(-0.63)"/>
    </g>
</svg>
