<svg xmlns="http://www.w3.org/2000/svg" width="95" height="95" viewBox="0 0 95 95">
    <defs>
        <style>
            .cls-1{fill:#fff}
        </style>
    </defs>
    <g id="icon_2" transform="translate(-2 -2)">
        <g id="Group_3087" transform="translate(2 2)">
            <path id="Path_11330" d="M95.417 87.5h-1.584v-4.75a1.583 1.583 0 0 0-1.583-1.583h-6.333V55.833H87.5a1.583 1.583 0 0 0 1.583-1.583V41.583a1.583 1.583 0 0 0-.76-1.352L51.907 18.065a1.574 1.574 0 0 0-.823-.231v-3.167h15.833V2h-19v15.833a1.574 1.574 0 0 0-.823.231L10.677 40.231a1.583 1.583 0 0 0-.76 1.352V54.25a1.583 1.583 0 0 0 1.583 1.583h1.583v25.334H6.75a1.583 1.583 0 0 0-1.583 1.583v4.75H3.583A1.583 1.583 0 0 0 2 89.083v6.333A1.583 1.583 0 0 0 3.583 97h91.834A1.583 1.583 0 0 0 97 95.417v-6.334a1.583 1.583 0 0 0-1.583-1.583zM51.083 5.167H63.75V11.5H51.083zm-38 38H30.5V40H17.146L48.36 21h2.28l31.214 19h-8.6v3.167h12.663v3.167H13.083zm0 6.333h72.834v3.167H13.083zm69.667 6.333v25.334h-3.167V55.833zm-6.333 0v25.334h-6.334V55.833zm-9.5 0v25.334H63.75V55.833zm-19 20.583v4.75H44.75v-4.75zM44.75 73.25V68.5h3.167v4.75zm15.833 11.083V87.5H38.417v-3.167zm-6.333-7.916v4.75h-3.167v-4.75zm-3.167-3.167V68.5h3.167v4.75zm6.333 7.917v-14.25a1.583 1.583 0 0 0-1.583-1.583H43.167a1.583 1.583 0 0 0-1.583 1.583v14.25h-3.167V55.833h22.166v25.334zM35.25 55.833v25.334h-3.167V55.833zm-6.333 0v25.334h-6.334V55.833zm-9.5 0v25.334H16.25V55.833zm11.083 38H5.167v-3.166H30.5zM8.333 87.5v-3.167H35.25V87.5zm57 6.333H33.667v-3.166h31.666zM63.75 87.5v-3.167h26.917V87.5zm30.083 6.333H68.5v-3.166h25.333z" class="cls-1" transform="translate(-2 -2)"/>
            <path id="Path_11331" d="M35.5 16a9.5 9.5 0 1 0 9.5 9.5 9.5 9.5 0 0 0-9.5-9.5zm0 15.833a6.333 6.333 0 1 1 6.333-6.333 6.333 6.333 0 0 1-6.333 6.333z" class="cls-1" transform="translate(12 6.167)"/>
            <path id="Rectangle_116" d="M0 0H3.351V3.351H0z" class="cls-1" transform="translate(41.326 56.963)"/>
            <path id="Rectangle_117" d="M0 0H3.351V3.351H0z" class="cls-1" transform="translate(50.262 56.963)"/>
            <path id="Path_11332" d="M31.532 19.293l-2.239 2.239L32.46 24.7a1.583 1.583 0 0 0 1.119.464h3.167V22h-2.511z" class="cls-1" transform="translate(13.921 8.088)"/>
            <path id="Rectangle_118" d="M0 0H3.351V3.351H0z" class="cls-1" transform="translate(31.274 37.976)"/>
            <path id="Rectangle_119" d="M0 0H10.052V3.351H0z" class="cls-1" transform="translate(58.08 37.976)"/>
        </g>
    </g>
</svg>
