<svg width="104" height="104" viewBox="0 0 104 104" fill="none" xmlns="http://www.w3.org/2000/svg">
<circle cx="52" cy="52" r="52" fill="white"/>
<path d="M47.1676 32.623C46.4351 30.3939 47.6457 27.9921 49.8715 27.2585C52.0973 26.5249 54.4954 27.7373 55.2279 29.9665C55.9604 32.1956 54.7498 34.5974 52.524 35.331C50.2982 36.0645 47.9 34.8521 47.1676 32.623Z" fill="#046BAC" stroke="#003555" stroke-width="2" stroke-miterlimit="10" stroke-linecap="round" stroke-linejoin="round"/>
<path d="M39.5691 24.0611C40.865 23.7581 42.1543 24.6145 42.5029 25.9057L44.8709 34.7926L46.9166 37.2367C47.4626 37.8888 54.4878 38.0008 55.0403 37.4079L57.4281 34.8321L59.6777 25.9979C60.0066 24.7067 61.2893 23.8306 62.5851 24.1204C63.927 24.4235 64.7493 25.7739 64.4138 27.0981L61.9866 36.6306C61.98 36.6635 61.9668 36.703 61.9537 36.736C61.9405 36.7755 61.9339 36.8084 61.9208 36.848C61.9076 36.8809 61.8945 36.9139 61.8813 36.9402C61.8682 36.9797 61.8484 37.0193 61.8353 37.0588C61.8221 37.0851 61.809 37.1115 61.7958 37.1378C61.7761 37.1774 61.7498 37.2235 61.73 37.263C61.7169 37.2894 61.7037 37.3091 61.6906 37.3289C61.6642 37.375 61.6314 37.4211 61.5985 37.4606C61.5853 37.4804 61.5722 37.4936 61.559 37.5133C61.513 37.5726 61.4669 37.6319 61.4143 37.6846C61.4077 37.6912 61.4077 37.6912 61.4011 37.6978C61.4011 37.6978 58.1122 41.2354 56.9874 42.4476C56.744 42.7045 56.6124 43.0405 56.619 43.3962C56.6322 45.9457 56.6453 56.5454 56.6453 56.6903L57.04 77.2705C57.0663 78.6078 56.3888 79.8727 55.2442 80.5512C54.8627 80.7818 54.672 80.7949 54.4812 80.7949C53.0801 80.7949 51.9356 79.675 51.9093 78.2652L51.5869 61.618C51.3699 61.6443 51.1462 61.6575 50.916 61.6575C50.6923 61.6575 50.4753 61.6443 50.2582 61.618L49.732 78.2652C49.6859 79.6618 48.5414 80.762 47.16 80.762C47.1337 80.762 47.1074 80.762 47.0745 80.762C45.6537 80.7159 44.5354 79.5235 44.5815 78.1005L45.259 56.7364C45.2261 56.4993 45.0551 45.4779 45.0156 43.0075C45.0091 42.6913 44.8972 42.3883 44.6933 42.1445L40.7992 37.4936L40.7926 37.487C40.694 37.3684 40.6085 37.2432 40.5361 37.1049C40.5229 37.0851 40.5098 37.0588 40.5032 37.039C40.4835 36.9995 40.4637 36.9534 40.444 36.9139C40.4309 36.8809 40.4177 36.848 40.4045 36.815C40.3914 36.7821 40.3782 36.7426 40.3651 36.7096C40.3519 36.6701 40.3388 36.6372 40.3322 36.5976C40.3256 36.5845 40.3256 36.5713 40.319 36.5581L37.7734 27.0586C37.4182 25.7344 38.2273 24.3773 39.5691 24.0611Z" fill="#046BAC" stroke="#003555" stroke-width="2" stroke-miterlimit="10" stroke-linecap="round" stroke-linejoin="round"/>
<path d="M73.892 35.2219C71.6098 34.6901 70.1901 32.4061 70.721 30.1204C71.252 27.8347 73.5326 26.4129 75.8148 26.9446C78.0971 27.4764 79.5168 29.7604 78.9859 32.0461C78.4549 34.3318 76.1743 35.7537 73.892 35.2219Z" fill="white" stroke="#003555" stroke-width="2" stroke-miterlimit="10" stroke-linecap="round" stroke-linejoin="round"/>
<path d="M63.3943 24.0884C64.6638 23.8052 65.986 24.7011 66.3017 25.9659L68.5579 34.8001L69.6301 35.953C70.5839 36.9807 71.9521 37.4616 73.3532 37.4089C73.3598 37.4089 73.3598 37.4089 73.3663 37.4089L78.1419 37.3759C78.1814 37.3759 78.2274 37.3759 78.2669 37.3759C80.8454 37.4945 83.1871 39.5763 83.8515 42.3365L87.9035 56.3158C88.2652 57.5674 87.5811 59.0233 86.3379 59.4186C86.088 59.4977 85.838 59.5372 85.5946 59.5372C84.5422 59.5372 83.5686 58.8455 83.2595 57.7783L80.7993 48.3775C80.7993 48.3775 80.773 56.4475 80.7336 56.7176L81.4111 78.0817C81.4571 79.5047 80.3389 80.6971 78.9181 80.7432C78.8918 80.7432 78.8654 80.7432 78.8326 80.7432C77.4446 80.7432 76.3067 79.643 76.2606 78.2464L75.7344 61.5992C75.5173 61.6255 75.3002 61.6387 75.0766 61.6387C74.8529 61.6387 74.6293 61.6189 74.4056 61.5992L74.0833 78.2464C74.057 79.6562 72.9059 80.7761 71.5114 80.7761C71.4916 80.7761 71.4785 80.7761 71.4588 80.7761C70.0379 80.7498 68.9065 79.5706 68.9329 78.1476C68.9329 78.1476 69.3538 56.1445 69.3538 55.9139C69.3538 55.9139 69.3604 45.1495 69.3736 43.1402C69.3736 42.936 69.2946 42.7384 69.1565 42.5869C68.2159 41.5789 64.5849 37.6856 64.5849 37.6856C64.5257 37.6263 64.473 37.5604 64.427 37.4945C64.4138 37.4813 64.4007 37.4616 64.3941 37.4484C64.3612 37.4023 64.3283 37.3562 64.302 37.3101C64.2889 37.2903 64.2757 37.264 64.2626 37.2442C64.2362 37.2047 64.2165 37.1585 64.1968 37.119C64.1836 37.0927 64.1705 37.0663 64.1573 37.04C64.1376 37.0004 64.1244 36.9609 64.1047 36.9214C64.0915 36.8884 64.0784 36.8621 64.0652 36.8292C64.0521 36.7896 64.0389 36.7501 64.0323 36.7106C64.0192 36.6776 64.0126 36.6447 63.9994 36.6118L61.5722 27.0793C61.2302 25.742 62.0524 24.3915 63.3943 24.0884Z" fill="white" stroke="#003555" stroke-width="2" stroke-miterlimit="10" stroke-linecap="round" stroke-linejoin="round"/>
<path d="M24.703 34.0973C23.0536 32.4459 23.0636 29.7576 24.7254 28.0928C26.3871 26.4281 29.0714 26.4173 30.7208 28.0687C32.3702 29.7201 32.3601 32.4084 30.6984 34.0731C29.0366 35.7379 26.3524 35.7487 24.703 34.0973Z" fill="white" stroke="#003555" stroke-width="2" stroke-miterlimit="10" stroke-linecap="round" stroke-linejoin="round"/>
<path d="M38.7142 24.0282C37.5565 23.9821 36.5501 24.8253 36.2607 25.9452L34.0045 34.7992L32.9323 35.952C31.9785 36.9797 30.6103 37.4606 29.2092 37.4079C29.2026 37.4079 29.2026 37.4079 29.196 37.4079L24.4205 37.375C24.381 37.375 24.335 37.375 24.2955 37.375C21.717 37.4936 19.3753 39.5753 18.7109 42.3356L14.6523 56.328C14.3235 57.4611 14.9023 58.8643 15.9811 59.332C16.3034 59.4703 16.6389 59.5362 16.9612 59.5362C18.0136 59.5362 18.9872 58.8445 19.2963 57.7773L21.7565 48.3765C21.7565 48.3765 21.7828 56.4466 21.8222 56.7167L21.1447 78.0808C21.0987 79.5037 22.2169 80.6961 23.6377 80.7422C23.664 80.7422 23.6904 80.7422 23.7233 80.7422C25.1112 80.7422 26.2492 79.6421 26.2952 78.2455L26.8214 61.5982C27.0385 61.6245 27.2556 61.6377 27.4792 61.6377C27.7029 61.6377 27.9265 61.618 28.1502 61.5982L28.4725 78.2455C28.4988 79.6553 29.6499 80.7752 31.0444 80.7752C31.0642 80.7752 31.0773 80.7752 31.0971 80.7752C32.5179 80.7488 33.6493 79.5696 33.623 78.1467L33.2086 57.0526C33.2086 56.8945 33.3204 43.7124 33.3204 43.7124C33.327 43.0405 33.5835 42.4014 34.0374 41.9074L37.9644 37.678C38.0236 37.6187 38.0762 37.5529 38.1222 37.487C38.1354 37.4738 38.1486 37.454 38.1551 37.4409C38.188 37.3947 38.2209 37.3486 38.2472 37.3025C38.2604 37.2828 38.2735 37.2564 38.2867 37.2366C38.313 37.1971 38.3327 37.151 38.3525 37.1115C38.3656 37.0851 38.3788 37.0588 38.3919 37.0324C38.4117 36.9929 38.4248 36.9534 38.4446 36.9138C38.4577 36.8809 38.4709 36.8545 38.484 36.8216C38.4972 36.7821 38.5103 36.7426 38.5169 36.703C38.5301 36.6701 38.5366 36.6372 38.5498 36.6042L40.9968 27.0717C41.3717 25.5961 40.3193 24.1006 38.7142 24.0282Z" fill="white" stroke="#003555" stroke-width="2" stroke-miterlimit="10" stroke-linecap="round" stroke-linejoin="round"/>
</svg>
