<svg xmlns="http://www.w3.org/2000/svg" id="icon_4" width="84.779" height="87.128" viewBox="0 0 84.779 87.128">
    <defs>
        <style>
            .cls-1{fill:#fff}
        </style>
    </defs>
    <path id="Path_31" d="M1837.378 1271.188l-.781 1.9a1.761 1.761 0 0 0 .365 1.9c.042.043.107.1.2.179a9.341 9.341 0 1 0 17.738.035 3.091 3.091 0 0 0 .253-.231 1.761 1.761 0 0 0 .342-1.9l-.806-1.888a3.387 3.387 0 0 0 1.985-2.913c0-3.446-5.737-4.668-10.649-4.668s-10.648 1.222-10.648 4.668a3.4 3.4 0 0 0 2.001 2.918zm5.437 1.541c.239.027.478.053.723.074.342.031.685.056 1.037.073.083 0 .166.005.248.009.4.016.792.039 1.2.039.425 0 .837-.023 1.253-.042.068 0 .137 0 .206-.007.353-.018.7-.044 1.039-.074.245-.021.484-.047.724-.074s.486-.054.721-.089c.488-.071.963-.152 1.411-.25l.267.626a19.286 19.286 0 0 1-11.2-.01l.251-.612c.443.1.912.177 1.395.248.231.034.478.06.724.088zm3.208 11.146a5.825 5.825 0 0 1-5.82-5.819 5.9 5.9 0 0 1 .166-1.374 24.243 24.243 0 0 0 11.31.019 5.805 5.805 0 0 1-5.656 7.174zm0-16.759a16.355 16.355 0 0 1 6.7 1.141 6.514 6.514 0 0 1-.885.363 22.959 22.959 0 0 1-11.62 0 6.575 6.575 0 0 1-.887-.363 16.356 16.356 0 0 1 6.689-1.142z" class="cls-1" transform="translate(-1828.226 -1261.854)"/>
    <path id="Path_32" d="M1964.361 1266.976l-.781 1.9a1.754 1.754 0 0 0 .286 1.786 9.331 9.331 0 1 0 18.445 2 9.14 9.14 0 0 0-.2-1.886l.026-.023a1.759 1.759 0 0 0 .339-1.9l-.807-1.887a3.391 3.391 0 0 0 1.986-2.914c0-3.447-5.737-4.669-10.649-4.669s-10.648 1.222-10.648 4.669a3.4 3.4 0 0 0 2.003 2.924zm5.455 1.542c.228.026.455.051.688.071.351.031.7.057 1.063.075.065 0 .131 0 .2.006.411.018.819.041 1.239.041s.844-.023 1.261-.042l.2-.006c.354-.018.7-.044 1.042-.074.242-.021.479-.046.715-.073s.5-.056.735-.091c.485-.071.957-.151 1.4-.25l.268.628a19.331 19.331 0 0 1-11.2-.011l.252-.612c.439.1.905.177 1.385.246.236.036.496.063.752.093zm3.156 9.952a5.814 5.814 0 0 1-5.808-5.808c0-.083.017-.161.021-.243a20.738 20.738 0 0 0 5.846.728 21.041 21.041 0 0 0 5.742-.691c0 .07.018.136.018.206a5.82 5.82 0 0 1-5.82 5.808zm.028-15.57a16.341 16.341 0 0 1 6.7 1.141 6.754 6.754 0 0 1-.886.364 19.716 19.716 0 0 1-5.81.748 25.811 25.811 0 0 1-3.157-.187 14.013 14.013 0 0 1-2.651-.561 6.437 6.437 0 0 1-.886-.365 16.342 16.342 0 0 1 6.69-1.14z" class="cls-1" transform="translate(-1902.703 -1259.383)"/>
    <path id="Path_33" d="M1902.753 1372.254l-6.692-27.592a32.623 32.623 0 0 0 .219-3.368v-19.432a7.4 7.4 0 0 0-14.362-2.474l-6.853 6.854-14.316 2.807c-.055 0-.108-.016-.165-.016h-11.53l-6.717-6.718a7.4 7.4 0 0 0-14.359 2.29l-3.25 16.344a1.725 1.725 0 0 0-.035.353 33.043 33.043 0 0 0 .216 3.337l-6.709 27.661a5.5 5.5 0 0 0 3.5 6.238 4.629 4.629 0 0 0 1.368.2 5.418 5.418 0 0 0 5.067-3.961l2.816-9.511a65.524 65.524 0 0 0 2.343 9.4c.5 1.3 1.595 4.179 4.432 4.179a4.814 4.814 0 0 0 1.044-.119l.167-.03a5.865 5.865 0 0 0 4.5-6.872l-3.915-25.571 2.468-10.285 2.449 2.45a1.763 1.763 0 0 0 1.245.516h3.46c1.706 1.394 4.349 4.182 4.467 5.74a.506.506 0 0 1-.159.471c-1.091 1.116-3.437-.553-3.765-.8l-4.95-4.775a1.76 1.76 0 1 0-2.443 2.534l5.018 4.84c.033.032.069.063.1.094a9.5 9.5 0 0 0 3.812 1.859v28.167a1.76 1.76 0 0 0 3.521 0V1348.5a4.738 4.738 0 0 0 1.216-.891 3.992 3.992 0 0 0 1.155-3.2c-.146-1.914-1.495-3.891-2.909-5.473h6.268a1.82 1.82 0 0 0 .267-.027 1.753 1.753 0 0 0 .542 0l17.565-2.928a1.762 1.762 0 0 0 .954-.492l1.668-1.668v12.223l-3.929 25.675a5.9 5.9 0 0 0 4.555 6.988 5.008 5.008 0 0 0 1.081.124c2.869 0 3.979-2.859 4.484-4.16a65.1 65.1 0 0 0 2.339-9.4l2.805 9.476a5.428 5.428 0 0 0 5.075 3.988 4.68 4.68 0 0 0 1.391-.21 5.506 5.506 0 0 0 3.481-6.271zm-77.995 1.549a1.93 1.93 0 0 1-1.684 1.414 1.052 1.052 0 0 1-.317-.043 1.954 1.954 0 0 1-1.125-2.091l5.206-21.469a7.234 7.234 0 0 0 .98 1.37c.494.528 1.075 2.584 1.628 4.98zm17.5-42.546a1.76 1.76 0 0 0-2.956.833l-3.283 13.678a1.77 1.77 0 0 0-.028.677l3.988 26.017a2.349 2.349 0 0 1-1.709 2.778c-.029 0-.134.022-.164.03-.433.1-.747.163-1.524-1.868a76.3 76.3 0 0 1-2.462-10.272c-.42-2.124-.8-3.966-1.162-5.585-.005-.021-.008-.043-.014-.064-.789-3.479-1.531-5.807-2.552-6.9s-1.614-3.52-1.923-5.839a1.773 1.773 0 0 0-.069-.548c-.114-1-.175-1.953-.187-2.74l3.246-16.323a1.7 1.7 0 0 0 .035-.344 3.859 3.859 0 0 1 3.942-3.83 3.8 3.8 0 0 1 3.654 2.768 1.759 1.759 0 0 0 .451.773l7.536 7.536a1.759 1.759 0 0 0 1.245.516h10.917v2.861h-12.827zm44.586 31.868a75.579 75.579 0 0 1-2.457 10.276c-.789 2.032-1.1 1.969-1.6 1.858a2.391 2.391 0 0 1-1.781-2.9l3.969-25.913a1.682 1.682 0 0 0 .021-.267v-16.606a1.76 1.76 0 0 0-3-1.244l-4.275 4.274-14.959 2.494v-2.856l13.506-2.648a1.752 1.752 0 0 0 .905-.483l7.536-7.536a1.762 1.762 0 0 0 .452-.774 3.881 3.881 0 0 1 7.6 1.061v19.422a27.625 27.625 0 0 1-.179 2.842 1.744 1.744 0 0 0-.082.657c-.311 2.3-.919 4.715-1.926 5.794-1.025 1.095-1.767 3.424-2.554 6.906 0 .011 0 .024-.008.036-.369 1.626-.744 3.475-1.166 5.607zm11.384 12.042a1.847 1.847 0 0 1-2.031-1.391l-4.682-15.813c.551-2.4 1.132-4.452 1.627-4.981a7.194 7.194 0 0 0 .982-1.366l5.2 21.426a1.964 1.964 0 0 1-1.094 2.126z" class="cls-1" transform="translate(-1818.09 -1291.717)"/>
</svg>
