<svg xmlns="http://www.w3.org/2000/svg" width="56.824" height="95" viewBox="0 0 56.824 95">
    <defs>
        <style>
            .cls-1{fill:#fff}
        </style>
    </defs>
    <g id="icon_1" transform="translate(-2248.883 -1222.481)">
        <g id="Group_3009" transform="translate(2263.364 1275.317)">
            <path id="Path_29" d="M2309.85 1392.861a1.571 1.571 0 0 1-.729-.18l-6.914-3.635-6.914 3.635a1.565 1.565 0 0 1-2.271-1.65l1.321-7.7-5.594-5.453a1.565 1.565 0 0 1 .866-2.669l7.731-1.124 3.458-7.005a1.564 1.564 0 0 1 2.805 0l3.459 7.005 7.731 1.124a1.565 1.565 0 0 1 .867 2.669l-5.594 5.453 1.278 7.452a1.545 1.545 0 0 1 .085.512 1.564 1.564 0 0 1-1.564 1.565zm-7.643-7.147a1.575 1.575 0 0 1 .728.179l4.837 2.543-.924-5.385a1.565 1.565 0 0 1 .45-1.385l3.913-3.815-5.407-.785a1.564 1.564 0 0 1-1.178-.856l-2.419-4.9-2.418 4.9a1.567 1.567 0 0 1-1.178.856l-5.407.785 3.912 3.815a1.564 1.564 0 0 1 .45 1.385l-.925 5.385 4.836-2.543a1.578 1.578 0 0 1 .729-.179z" class="cls-1" transform="translate(-2288.276 -1366.209)"/>
        </g>
        <path id="Path_30" d="M2281.642 1244.485h-8.692a1.565 1.565 0 1 0 0 3.129h8.692a20.961 20.961 0 0 1 20.937 20.936v24.865a20.961 20.961 0 0 1-20.937 20.936h-8.692a20.961 20.961 0 0 1-20.936-20.936v-24.865a20.869 20.869 0 0 1 16.065-20.35 60.49 60.49 0 0 0 3.656 8.031 8.335 8.335 0 0 0 5.56 14.555 8.347 8.347 0 1 0 0-16.693 1.565 1.565 0 1 0 0 3.13 5.231 5.231 0 1 1-3.971 1.842c.818 1.381 1.7 2.78 2.668 4.24a1.564 1.564 0 0 0 2.606-1.732c-1.309-1.971-2.449-3.824-3.485-5.666-5.1-9.064-9.623-21.46-2.26-29.118 1.036-.776 3.77-1.775 5.8-.729 2.046 1.057 2.987 4.061 2.721 8.686v.107a26.035 26.035 0 0 1-.805 6.84 1.565 1.565 0 1 0 3 .89 28.706 28.706 0 0 0 .934-7.71c.419-7.481-2.166-10.434-4.411-11.593-3.294-1.7-7.4-.371-9.26 1.119a1.74 1.74 0 0 0-.141.128c-4.861 4.983-6.041 12.02-3.583 20.687a23.993 23.993 0 0 0-18.219 23.336v24.865a24.093 24.093 0 0 0 24.066 24.066h8.692a24.093 24.093 0 0 0 24.066-24.066v-24.865a24.094 24.094 0 0 0-24.071-24.065z" class="cls-1" transform="translate(0 0)"/>
    </g>
</svg>
